<?xml version="1.0" encoding="UTF-8" standalone="no"?><!DOCTYPE svg PUBLIC "-//W3C//DTD SVG 1.1//EN" "http://www.w3.org/Graphics/SVG/1.1/DTD/svg11.dtd"><svg width="100%" height="100%" viewBox="0 0 25 25" version="1.1" xmlns="http://www.w3.org/2000/svg" xmlns:xlink="http://www.w3.org/1999/xlink" xml:space="preserve" xmlns:serif="http://www.serif.com/" style="fill-rule:evenodd;clip-rule:evenodd;stroke-linejoin:round;stroke-miterlimit:2;"><rect id="Artboard1" x="0" y="0" width="25" height="25" style="fill:none;"/><g id="Artboard11" serif:id="Artboard1"><path d="M22.05,12.014c0.203,0.068 0.341,0.258 0.341,0.473c0,0.215 -0.137,0.405 -0.34,0.474c-3.458,1.158 -12.371,4.143 -16.824,5.635c-0.605,0.202 -1.271,0.102 -1.789,-0.271c-0.518,-0.373 -0.825,-0.972 -0.826,-1.61c-0.002,-2.428 -0.004,-5.948 -0.006,-8.387c-0.001,-0.647 0.31,-1.255 0.835,-1.634c0.524,-0.378 1.199,-0.482 1.813,-0.277c4.467,1.489 13.346,4.447 16.796,5.597Z" style="fill:#333;"/><path d="M22.08,12.12c0.179,0.034 0.309,0.191 0.309,0.373c0,0.182 -0.13,0.339 -0.309,0.373c-4.62,0.875 -15.953,3.022 -18.807,3.562c-0.163,0.031 -0.332,-0.012 -0.459,-0.118c-0.128,-0.106 -0.202,-0.263 -0.202,-0.429c-0.002,-1.526 -0.005,-5.235 -0.006,-6.753c0,-0.164 0.073,-0.32 0.199,-0.425c0.126,-0.104 0.293,-0.147 0.454,-0.117c2.842,0.534 14.195,2.666 18.821,3.534Z" style="fill:#fee100;"/><path d="M20.943,12.288c0.104,0.008 0.185,0.095 0.185,0.2c0,0.105 -0.08,0.192 -0.185,0.2c-5.551,0.445 -18.333,1.469 -18.333,1.469l-0.002,-3.309c0,0 12.783,1.004 18.335,1.44Z" style="fill:#333;"/><path d="M13.632,12.408c0.048,0.003 0.086,0.043 0.086,0.092c0,0.048 -0.038,0.088 -0.086,0.092c-3.04,0.205 -10.13,0.683 -10.946,0.738c-0.019,0.002 -0.039,-0.005 -0.054,-0.019c-0.014,-0.014 -0.023,-0.033 -0.023,-0.053c0,-0.28 0,-1.243 -0.001,-1.509c0,-0.017 0.008,-0.034 0.021,-0.046c0.012,-0.012 0.03,-0.019 0.047,-0.017c0.772,0.051 7.904,0.521 10.956,0.722Z" style="fill:#00bcc4;"/></g></svg>